<svg width="347" height="110" xmlns="http://www.w3.org/2000/svg">

 <g>
  <title>Layer 1</title>
  <g stroke="null">
   <path stroke="null" fill="#00b0ff" d="m11.14413,59.08779l0.26007,-54.12499l52.65473,27.33524l-0.08669,18.04166l-35.10316,-18.22349l-0.17338,36.08333l-17.55158,-9.11175z"/>
   <path stroke="null" fill="#0081cb" d="m64.05894,32.29804l52.91481,-26.78975l-0.26007,54.12499l-35.27654,17.85983l-17.55158,-9.11175l35.27654,-17.85983l0.08669,-18.04166l-35.27654,17.85983l0.08669,-18.04166z"/>
   <path stroke="null" fill="#00b0ff" d="m63.88556,68.38137l-0.08669,18.04166l35.10316,18.22349l0.08669,-18.04166l-35.10316,-18.22349z"/>
   <path stroke="null" fill="#0081cb" d="m98.90202,104.64652l52.91481,-26.78975l0.17338,-36.08333l-17.63827,8.92992l-0.08669,18.04166l-35.27654,17.85983l-0.08669,18.04166zm35.53661,-71.98482l0.08669,-18.04166l17.63827,-8.92992l-0.08669,18.04166l-17.63827,8.92992z"/>
  </g>
  <text font-weight="normal" font-style="normal" transform="matrix(1.24592 0 0 1.92473 -295.926 -443.53)" stroke="#000" xml:space="preserve" text-anchor="start" font-family="sans-serif" font-size="24" id="svg_1" y="252.93461" x="362.11687" stroke-width="0" fill="#1976d2">MATERIAL-UI</text>
 </g>
</svg>